<svg width="65" height="65" viewBox="0 0 65 65" fill="none" xmlns="http://www.w3.org/2000/svg">
<path d="M32.5 1.8C49.4 1.8 63.2 15.6 63.2 32.5C63.2 49.4 49.4 63.2 32.5 63.2C15.6 63.2 1.8 49.4 1.8 32.5C1.7 15.6 15.5 1.8 32.5 1.8ZM32.5 0C14.6 0 0 14.6 0 32.5C0 50.5 14.6 65 32.5 65C50.4 65 65 50.5 65 32.5C65 14.6 50.4 0 32.5 0Z" fill="black"/>
<path d="M25.4 20.8C24.3 21.9 22.7 22.1 21.9 21.2L21.8 21.1C21.7 20.9 21.5 20.9 21.3 21C21.1 21.2 20.9 21.4 20.7 21.6C20.5 21.8 20.6 22 20.8 22.1L20.9 22.2C21.8 23.1 21.6 24.6 20.5 25.7C19.4 26.8 17.8 27 17 26.1C16.1 25.2 16.3 23.7 17.4 22.6C18 22 18.5 21.9 18.5 21.9C19 21.8 19.4 21.5 19.3 21.2C19.2 21 19.2 20.7 19.2 20.7C19.2 20.7 18.8 20.7 18.2 20.8C18.2 20.8 16.9 21 16 20.2C15 19.2 15 17.5 16 16.4C17.1 15.3 18.8 15.3 19.8 16.4C20.6 17.2 20.4 18.6 20.4 18.6C20.3 19.1 20.3 19.5 20.3 19.6C20.3 19.6 20.6 19.7 20.8 19.7C21 19.8 21.3 19.4 21.5 18.9C21.5 18.9 21.6 18.4 22.2 17.8C23.3 16.7 24.9 16.5 25.7 17.4C26.6 18.1 26.4 19.7 25.4 20.8ZM48 46.7L26.9 25.6C27.2 25.2 27.1 24.7 26.8 24.4L25.7 22.6C26 22.4 26.3 22.2 26.5 21.9C27.3 21.1 27.8 20.1 27.9 19.1C28 17.9 27.7 16.8 26.9 16.1C26.1 15.3 25 15 23.9 15.1C23.1 15.2 22.3 15.5 21.6 16C21.4 15.7 21.2 15.4 20.9 15.1C19.2 13.4 16.5 13.5 14.8 15.2C13.1 16.9 13.1 19.6 14.7 21.3C15 21.6 15.2 21.8 15.6 22C15.1 22.7 14.8 23.5 14.7 24.3C14.6 25.5 14.9 26.6 15.7 27.3C16.5 28.1 17.6 28.4 18.7 28.3C19.7 28.2 20.7 27.7 21.5 26.9C21.8 26.6 22 26.4 22.2 26.1L24 27.2C24.3 27.5 24.9 27.6 25.2 27.3L46.3 48.4C46.7 48.8 47.3 48.8 47.6 48.4L47.9 48.1C48.4 47.7 48.4 47.1 48 46.7Z" fill="black"/>
<path d="M50.1 42.9L47.9 45.1L42.6 39.8L44.8 37.6C45.2 37.2 45.8 37.2 46.1 37.6L46.3 37.8L45.4 38.7C45 39.1 45 39.7 45.4 40C45.8 40.4 46.4 40.4 46.7 40L47.6 39.1L48.5 40L47.6 40.9C47.2 41.3 47.2 41.9 47.6 42.2C48 42.6 48.6 42.6 48.9 42.2L49.8 41.3L50 41.5C50.5 41.9 50.5 42.5 50.1 42.9Z" fill="black"/>
<path d="M22.3 42.9C23 43.6 23 44.8 22.3 45.5C21.6 46.2 20.4 46.2 19.7 45.5C19 44.8 19 43.6 19.7 42.9C20.4 42.2 21.6 42.2 22.3 42.9ZM23.7 41.5C23 40.8 22 40.4 21 40.4C20 40.4 19 40.8 18.3 41.5C16.8 43 16.8 45.4 18.3 46.9C19 47.6 20 48 21 48C22 48 23 47.6 23.7 46.9C25.2 45.4 25.2 43 23.7 41.5Z" fill="black"/>
<path d="M24.6 40.7C24.9 41 25.1 41.3 25.3 41.6L31.7 35.2L30.1 33.6L23.7 40C24 40.2 24.3 40.4 24.6 40.7Z" fill="black"/>
<path d="M47 16.6C46.9 16.6 46.9 16.6 47 16.6C45.8 17.4 44.4 18.5 43.1 19.9C41.8 21.2 40.7 22.5 39.9 23.6C38.6 21.5 38.7 18.8 40.4 17.1C42.1 15.4 44.9 15.2 47 16.6ZM51 14.4C50.5 13.9 49.6 13.9 49 14.4C48.6 14.8 48.5 15.3 48.6 15.8C48.5 15.8 48.3 15.9 48.2 15.9C45.6 13.8 41.8 13.9 39.5 16.2C37.2 18.5 37.1 22.2 39.2 24.8C38.4 24.1 37.7 23.4 37 23C36.8 22.8 36.6 22.7 36.4 22.6C35.9 22.1 35 22.1 34.4 22.6C33.8 23.1 33.9 24 34.4 24.6C34.9 25.1 35.6 25.1 36.1 24.8C36.5 25.3 37.4 26.3 37.4 26.3L33.2 30.4L34.8 32L38.9 27.9C38.9 27.9 40.4 29.2 41.1 29.7C41.3 29.9 41.5 30 41.7 30.1C42.2 30.6 43.1 30.6 43.7 30.1C44.2 29.6 44.2 28.7 43.7 28.1C43.2 27.6 42.6 27.6 42 27.9C41.6 27.4 41.1 26.8 40.5 26.2C40.8 26.1 41.2 25.8 41.7 25.5C42.8 24.7 44.2 23.6 45.5 22.3C46.8 21 48 19.6 48.7 18.5C49.2 17.8 49.5 17.2 49.6 16.8C50.1 16.9 50.6 16.8 51 16.4C51.5 15.8 51.5 14.9 51 14.4Z" fill="black"/>
<path d="M17.5 47.7C17.3 47.5 17.1 47.2 16.9 47C14.5 50 13.4 52.2 18.2 48.3C18 48.2 17.7 48 17.5 47.7Z" fill="black"/>
</svg>
